<?xml version="1.0" standalone="no"?><!DOCTYPE svg PUBLIC "-//W3C//DTD SVG 1.1//EN" "http://www.w3.org/Graphics/SVG/1.1/DTD/svg11.dtd"><svg t="1492772954866" class="icon" style="" viewBox="0 0 1024 1024" version="1.1" xmlns="http://www.w3.org/2000/svg" p-id="8343" xmlns:xlink="http://www.w3.org/1999/xlink" width="200" height="200"><defs><style type="text/css"></style></defs><path d="M865.28 675.84c-10.24 51.2-30.72 87.04-46.08 112.64-5.12 5.12-15.36 20.48-20.48 25.6-5.12 5.12-20.48 20.48-25.6 20.48-25.6 20.48-56.32 35.84-107.52 51.2-61.44 15.36-122.88 20.48-153.6 15.36-30.72 0-92.16 0-153.6-15.36-46.08-10.24-81.92-30.72-107.52-51.2-5.12-5.12-20.48-15.36-25.6-20.48-5.12-5.12-15.36-20.48-20.48-25.6-15.36-25.6-35.84-61.44-46.08-112.64-15.36-66.56-15.36-128-15.36-163.84 0-35.84 0-97.28 15.36-163.84 10.24-51.2 30.72-87.04 46.08-112.64 0-10.24 10.24-20.48 20.48-30.72 5.12-5.12 20.48-20.48 25.6-20.48 25.6-20.48 56.32-35.84 107.52-51.2 61.44-15.36 122.88-20.48 153.6-15.36 30.72 0 92.16 0 153.6 15.36 46.08 10.24 81.92 30.72 107.52 51.2 5.12 5.12 20.48 15.36 25.6 20.48 5.12 5.12 15.36 20.48 20.48 25.6 15.36 25.6 35.84 61.44 46.08 112.64 15.36 66.56 15.36 128 15.36 163.84 0 40.96 0 102.4-15.36 168.96z m153.6-163.84c0-199.68-56.32-312.32-143.36-389.12C773.12 30.72 650.24 5.12 506.88 5.12S240.64 30.72 138.24 122.88C56.32 199.68 0 312.32 0 512c0 199.68 56.32 312.32 143.36 389.12 102.4 92.16 225.28 117.76 368.64 117.76s266.24-25.6 368.64-117.76c81.92-76.8 138.24-189.44 138.24-389.12z" fill="#A47AE2" p-id="8344"></path><path d="M409.6 665.6V358.4l256 153.6z" fill="#A47AE2" p-id="8345"></path></svg>