<?xml version="1.0" standalone="no"?><!DOCTYPE svg PUBLIC "-//W3C//DTD SVG 1.1//EN" "http://www.w3.org/Graphics/SVG/1.1/DTD/svg11.dtd"><svg t="1570887540437" class="icon" viewBox="0 0 1024 1024" version="1.1" xmlns="http://www.w3.org/2000/svg" p-id="15641" width="200" height="200" xmlns:xlink="http://www.w3.org/1999/xlink"><defs><style type="text/css"></style></defs><path d="M863.6416 676.864c-11.0592 51.0464-29.0304 87.9616-46.336 113.3568a273.5616 273.5616 0 0 1-21.6064 27.136c-7.0656 7.3216-19.968 18.7904-25.1392 22.8352-23.808 18.4832-58.368 37.632-106.1376 49.4592a640.1536 640.1536 0 0 1-154.8288 17.7664c-32.7168 0.256-91.2896-2.048-154.88-17.7664-47.7184-11.776-82.3296-30.976-106.1376-49.4592a323.7376 323.7376 0 0 1-25.1392-22.8352 273.6128 273.6128 0 0 1-21.6064-27.136c-17.3056-25.3952-35.2768-62.3104-46.336-113.3056a775.1168 775.1168 0 0 1-16.64-165.376 775.168 775.168 0 0 1 16.64-165.376c11.0592-50.944 29.0304-87.9104 46.336-113.3056 3.7888-5.5808 14.5408-19.8144 21.6064-27.136 7.0656-7.3216 19.968-18.7392 25.1392-22.8352 23.808-18.432 58.368-37.632 106.1376-49.4592a640.1536 640.1536 0 0 1 154.88-17.7152c32.6656-0.256 91.2384 1.9968 154.8288 17.7152 47.7184 11.8272 82.3296 30.976 106.1376 49.4592 5.2224 4.096 18.0736 15.5136 25.1392 22.8352 7.0656 7.3216 17.8176 21.5552 21.6064 27.136 17.3056 25.3952 35.2768 62.3616 46.336 113.3568 14.7456 67.8912 16.896 130.4576 16.5888 165.376a774.144 774.144 0 0 1-16.5888 165.3248z m155.4944-165.4784c-0.1024-198.656-57.4976-314.0096-142.1312-389.8368C773.2736 28.5184 654.1312 4.864 509.5936 4.864h-0.0512c-144.5376 0-263.68 23.6544-367.4112 116.6848C57.4976 197.3248 0 312.7296 0 511.3856v0.3584c0.0512 198.656 57.4976 314.0096 142.1312 389.8368 103.7312 93.0304 222.8736 116.6336 367.4112 116.6336h0.0512c144.5376 0 263.68-23.6032 367.4112-116.6336 84.6336-75.8272 142.0288-191.232 142.1312-389.8368v-0.3584z" fill="#FF9F51" p-id="15642"></path><path d="M491.52 540.8768c-16.384-8.8576-40.96-11.776-61.44-11.776-69.632 0-122.88 38.4-122.88 88.7296 0 50.2784 53.248 88.7296 122.88 88.7296 69.632 0 122.88-38.4512 122.88-88.7296v-254.464h122.88V307.2H491.52v233.6768z" fill="#FF9F51" p-id="15643"></path></svg>