<?xml version="1.0" standalone="no"?><!DOCTYPE svg PUBLIC "-//W3C//DTD SVG 1.1//EN" "http://www.w3.org/Graphics/SVG/1.1/DTD/svg11.dtd"><svg t="1492772302326" class="icon" style="" viewBox="0 0 1024 1024" version="1.1" xmlns="http://www.w3.org/2000/svg" p-id="7847" xmlns:xlink="http://www.w3.org/1999/xlink" width="200" height="200"><defs><style type="text/css"></style></defs><path d="M865.28 680.96c-10.24 51.2-30.72 87.04-46.08 112.64-5.12 5.12-15.36 20.48-20.48 25.6l-25.6 25.6c-25.6 20.48-56.32 35.84-107.52 51.2-61.44 15.36-122.88 20.48-153.6 20.48-30.72 0-92.16 0-153.6-20.48-46.08-10.24-81.92-30.72-107.52-51.2-5.12-5.12-20.48-15.36-25.6-25.6-10.24-5.12-20.48-20.48-20.48-25.6-15.36-25.6-35.84-61.44-46.08-112.64-15.36-66.56-15.36-133.12-15.36-168.96 0-35.84 0-97.28 15.36-168.96 10.24-51.2 25.6-87.04 46.08-112.64 0-5.12 10.24-20.48 20.48-25.6l25.6-25.6c20.48-20.48 56.32-35.84 107.52-51.2 61.44-15.36 122.88-20.48 153.6-20.48 30.72 0 92.16 0 153.6 20.48 46.08 10.24 81.92 30.72 107.52 51.2 5.12 5.12 20.48 15.36 25.6 25.6 10.24 5.12 20.48 20.48 20.48 25.6 15.36 25.6 35.84 61.44 46.08 112.64 15.36 66.56 15.36 133.12 15.36 168.96 5.12 35.84 0 97.28-15.36 168.96zM1024 512c0-199.68-56.32-317.44-143.36-394.24C778.24 25.6 655.36 0 512 0S245.76 25.6 143.36 117.76C56.32 194.56 0 312.32 0 512c0 199.68 56.32 317.44 143.36 394.24 102.4 92.16 225.28 117.76 368.64 117.76s266.24-25.6 368.64-117.76c87.04-76.8 143.36-194.56 143.36-394.24z" fill="#DB4437" p-id="7848"></path><path d="M691.2 583.68c-10.24 0-25.6 0-35.84 5.12 15.36 5.12 30.72 10.24 40.96 10.24 10.24 0 20.48 0 30.72-5.12 0-5.12-5.12-10.24-35.84-10.24M496.64 506.88c-15.36 35.84-30.72 66.56-46.08 97.28h5.12v5.12c30.72-10.24 61.44-20.48 97.28-30.72h5.12c-25.6-25.6-46.08-46.08-61.44-71.68m-10.24-209.92h-10.24c-5.12 25.6 0 51.2 10.24 71.68 10.24-20.48 10.24-46.08 0-71.68m-189.44 430.08c25.6-10.24 40.96-20.48 51.2-40.96-20.48 10.24-35.84 20.48-51.2 40.96m399.36-87.04c-40.96-5.12-76.8-15.36-107.52-40.96-56.32 15.36-112.64 30.72-168.96 56.32-40.96 71.68-81.92 112.64-117.76 112.64-5.12 0-15.36 0-20.48-5.12-15.36-5.12-25.6-20.48-25.6-40.96 0-15.36 5.12-46.08 138.24-107.52 30.72-56.32 56.32-117.76 76.8-179.2-20.48-30.72-56.32-112.64-30.72-158.72 10.24-15.36 25.6-20.48 46.08-20.48 15.36 0 25.6 5.12 35.84 20.48 20.48 25.6 15.36 81.92-5.12 158.72 20.48 40.96 51.2 81.92 87.04 112.64 30.72-5.12 61.44-10.24 87.04-10.24 66.56 0 76.8 30.72 76.8 51.2 0 51.2-46.08 51.2-71.68 51.2" fill="#DB4437" p-id="7849"></path></svg>