<?xml version="1.0" standalone="no"?><!DOCTYPE svg PUBLIC "-//W3C//DTD SVG 1.1//EN" "http://www.w3.org/Graphics/SVG/1.1/DTD/svg11.dtd"><svg t="1571385481877" class="icon" viewBox="0 0 1024 1024" version="1.1" xmlns="http://www.w3.org/2000/svg" p-id="10013" width="40" height="40" xmlns:xlink="http://www.w3.org/1999/xlink"><defs><style type="text/css"></style></defs><path d="M92.5184 383.2832A41.2672 41.2672 0 0 1 51.2 342.016V41.3184C51.2 18.432 69.632 0 92.5184 0h300.3904c22.8864 0 41.3184 18.432 41.3184 41.3184v300.3904c0 23.1424-18.432 41.5744-41.3184 41.5744H92.5184z" fill="#45F923" p-id="10014"></path><path d="M927.3856 383.2832h-300.3904a41.2672 41.2672 0 0 1-41.3184-41.2672V41.3184c0-22.8864 18.432-41.3184 41.3184-41.3184h300.3904c22.8864 0 41.3184 18.432 41.3184 41.3184v300.3904c0 23.1424-18.432 41.5744-41.3184 41.5744z" fill="#D9FFB8" p-id="10015"></path><path d="M392.9088 912.5376H92.5184A41.2672 41.2672 0 0 1 51.2 871.2704v-300.4416c0-22.8352 18.432-41.3184 41.3184-41.3184h300.3904c22.8864 0 41.3184 18.432 41.3184 41.3184v300.4416c0 22.8352-18.432 41.2672-41.3184 41.2672z" fill="#22FF47" p-id="10016"></path><path d="M749.2608 951.9104L546.304 749.056a39.5776 39.5776 0 0 1 0-55.9104l202.9568-202.9568a39.5776 39.5776 0 0 1 55.8592 0l202.9568 202.9568a39.5776 39.5776 0 0 1 0 55.9104l-202.9568 202.9056a39.5776 39.5776 0 0 1-55.8592 0z" fill="#59F923" p-id="10017"></path></svg>